<svg width="69" height="69" viewBox="0 0 69 69" fill="none" xmlns="http://www.w3.org/2000/svg">
<path d="M34.5 69C29.785 69 25.3288 68.0938 21.1313 66.2814C16.9338 64.469 13.2687 61.9965 10.1361 58.8639C7.0035 55.7313 4.531 52.0662 2.7186 47.8688C0.9062 43.6712 0 39.215 0 34.5C0 29.7275 0.93495 25.2425 2.80485 21.045C4.67475 16.8475 7.20475 13.1963 10.3948 10.0913C13.585 6.98625 17.3075 4.5287 21.5625 2.7186C25.8175 0.9085 30.36 0.0023 35.19 0C39.79 0 44.1313 0.7912 48.2138 2.3736C52.2963 3.956 55.8762 6.141 58.9536 8.9286C62.031 11.7162 64.4747 15.0224 66.2849 18.8473C68.0949 22.6722 69 26.7973 69 31.2225C69 37.835 66.9875 42.91 62.9625 46.4474C58.9375 49.9848 54.05 51.7523 48.3 51.75H41.9175C41.4 51.75 41.0412 51.8937 40.8411 52.1813C40.641 52.4688 40.5398 52.785 40.5375 53.13C40.5375 53.82 40.9688 54.8125 41.8312 56.1074C42.6938 57.4023 43.125 58.8823 43.125 60.5475C43.125 63.4225 42.3349 65.55 40.7548 66.93C39.1748 68.31 37.0898 69 34.5 69ZM15.525 37.95C17.02 37.95 18.2563 37.4613 19.2337 36.4837C20.2113 35.5062 20.7 34.27 20.7 32.775C20.7 31.28 20.2113 30.0438 19.2337 29.0663C18.2563 28.0888 17.02 27.6 15.525 27.6C14.03 27.6 12.7938 28.0888 11.8163 29.0663C10.8388 30.0438 10.35 31.28 10.35 32.775C10.35 34.27 10.8388 35.5062 11.8163 36.4837C12.7938 37.4613 14.03 37.95 15.525 37.95ZM25.875 24.15C27.37 24.15 28.6062 23.6612 29.5837 22.6838C30.5613 21.7062 31.05 20.47 31.05 18.975C31.05 17.48 30.5613 16.2438 29.5837 15.2663C28.6062 14.2888 27.37 13.8 25.875 13.8C24.38 13.8 23.1438 14.2888 22.1663 15.2663C21.1888 16.2438 20.7 17.48 20.7 18.975C20.7 20.47 21.1888 21.7062 22.1663 22.6838C23.1438 23.6612 24.38 24.15 25.875 24.15ZM43.125 24.15C44.62 24.15 45.8563 23.6612 46.8338 22.6838C47.8112 21.7062 48.3 20.47 48.3 18.975C48.3 17.48 47.8112 16.2438 46.8338 15.2663C45.8563 14.2888 44.62 13.8 43.125 13.8C41.63 13.8 40.3938 14.2888 39.4163 15.2663C38.4388 16.2438 37.95 17.48 37.95 18.975C37.95 20.47 38.4388 21.7062 39.4163 22.6838C40.3938 23.6612 41.63 24.15 43.125 24.15ZM53.475 37.95C54.97 37.95 56.2063 37.4613 57.1838 36.4837C58.1613 35.5062 58.65 34.27 58.65 32.775C58.65 31.28 58.1613 30.0438 57.1838 29.0663C56.2063 28.0888 54.97 27.6 53.475 27.6C51.98 27.6 50.7437 28.0888 49.7662 29.0663C48.7887 30.0438 48.3 31.28 48.3 32.775C48.3 34.27 48.7887 35.5062 49.7662 36.4837C50.7437 37.4613 51.98 37.95 53.475 37.95Z" fill="#604BA0"/>
</svg>
