<svg width="69" height="69" viewBox="0 0 69 69" fill="none" xmlns="http://www.w3.org/2000/svg">
<path d="M50.1862 34.5C50.1862 43.1633 43.1633 50.1862 34.5 50.1862C25.8367 50.1862 18.8138 43.1633 18.8138 34.5C18.8138 25.8367 25.8367 18.8138 34.5 18.8138C43.1633 18.8138 50.1862 25.8367 50.1862 34.5ZM38.6279 8.33189C49.9355 10.1089 58.8912 19.0645 60.6681 30.372H69C67.1133 14.5059 54.4941 1.88685 38.6279 0V8.33189ZM8.33189 30.3721C10.1088 19.0645 19.0644 10.1089 30.372 8.33189V0C14.5058 1.88672 1.88685 14.5059 0 30.3721H8.33189ZM60.6681 38.6279C58.8912 49.9356 49.9355 58.8912 38.6279 60.6683V69C54.4941 67.1133 67.1133 54.4941 69 38.6279H60.6681ZM30.3721 60.6683C19.0644 58.8912 10.1088 49.9355 8.33189 38.6279H0C1.88672 54.4941 14.5058 67.1133 30.3721 69V60.6683Z" fill="#604BA0"/>
</svg>
