<svg width="81" height="67" viewBox="0 0 81 67" fill="none" xmlns="http://www.w3.org/2000/svg">
<path d="M74.8396 1.1282C77.4552 2.40867 79.4256 4.79094 80.7309 8.41398C80.9184 8.87842 81.0097 9.37562 80.9992 9.87585C80.9887 10.3761 80.8767 10.8691 80.6699 11.3254C80.4631 11.7817 80.1657 12.1919 79.7955 12.5316C79.4253 12.8713 78.9899 13.1334 78.5153 13.3023C78.0407 13.4712 77.5367 13.5434 77.0334 13.5146C76.53 13.4858 76.0377 13.3566 75.5858 13.1347C75.1339 12.9129 74.7318 12.6028 74.4033 12.2232C74.0749 11.8436 73.827 11.4022 73.6744 10.9253C72.8342 8.60257 71.949 8.01197 71.5239 7.80848C70.9037 7.50077 70.1636 7.44618 68.6082 7.44618C67.388 7.44618 66.6628 7.81841 66.1377 8.2899C65.5376 8.82095 65.0075 9.65474 64.6024 10.7417C64.1169 12.0651 63.837 13.4541 63.7722 14.861L63.7622 15.1191V15.1687C63.7622 17.1837 63.8022 19.5858 64.5824 21.5661C64.9391 22.4826 65.4226 23.189 66.0327 23.6853C66.6128 24.1667 67.518 24.6283 69.0233 24.7921C69.4834 24.8417 70.4737 24.8417 71.4389 24.4844C71.9675 24.2935 72.4496 23.9942 72.8537 23.606C73.2579 23.2177 73.575 22.7492 73.7844 22.2311C74.2108 21.3598 74.9627 20.6877 75.8804 20.3576C76.7982 20.0276 77.8094 20.0656 78.6993 20.4636C79.5893 20.8615 80.2878 21.5881 80.6466 22.489C81.0054 23.3899 80.9962 24.3941 80.6209 25.2884C77.4402 32.2913 70.4486 32.4402 68.1932 32.192C65.3976 31.8843 63.077 30.9215 61.2466 29.4177C59.6042 28.042 58.3468 26.2694 57.5959 24.271C56.2606 20.8812 56.2606 17.1986 56.2606 15.3027V14.9354L56.2856 14.4689C56.4029 12.309 56.8359 10.1774 57.5708 8.14101C58.236 6.36919 59.3212 4.34426 61.1416 2.73127C63.2002 0.928802 65.8634 -0.0448217 68.6082 0.00158578H68.7833C70.1486 0.00158578 72.5241 -0.00337732 74.8396 1.1282ZM16.967 2.48312C16.7117 1.76561 16.2409 1.143 15.618 0.699159C14.9952 0.25532 14.2503 0.0115752 13.4836 0.000759848C12.7169 -0.0100556 11.9653 0.212578 11.33 0.638669C10.6947 1.06476 10.2063 1.67384 9.93047 2.38386L0.25336 27.1992C-0.106087 28.1199 -0.0822462 29.1446 0.319638 30.0479C0.721522 30.9512 1.46853 31.6591 2.39633 32.0158C3.32412 32.3725 4.35671 32.3489 5.26693 31.95C6.17715 31.5512 6.89044 30.8099 7.24988 29.8891L7.77 28.5442H18.3223L18.7724 29.7849C19.1312 30.6786 19.8248 31.3998 20.7077 31.7971C21.5905 32.1945 22.5941 32.2371 23.508 31.9162C24.4219 31.5953 25.1751 30.9357 25.6097 30.0757C26.0442 29.2157 26.1264 28.2222 25.8389 27.3034L16.967 2.48312ZM15.6617 21.0946H10.6756L13.2762 14.4292L15.6617 21.0946ZM30.0048 3.72388V28.5392C30.0049 29.0792 30.1233 29.6128 30.3519 30.1029C30.5805 30.593 30.9138 31.0278 31.3287 31.3772C31.7436 31.7267 32.2302 31.9823 32.7547 32.1264C33.2791 32.2705 33.8289 32.2997 34.3658 32.2119V32.2615H42.5076C43.6978 32.2615 46.1734 32.0779 48.4839 30.7477C51.0844 29.2439 53.0999 26.4795 53.0999 22.2907C53.0999 20.2062 52.6398 18.35 51.6846 16.7966C51.2925 16.1579 50.8165 15.5737 50.2693 15.0595C51.0294 13.6748 51.4795 11.9824 51.4795 9.97237C51.4795 7.94248 51.0744 6.14089 50.2292 4.61227C49.4652 3.2197 48.3213 2.06897 46.9285 1.29198C44.613 0.00158575 42.1375 0.00158578 41.2973 0.00158578H33.7557C32.7609 0.00158578 31.8068 0.393755 31.1034 1.09182C30.4 1.78989 30.0048 2.73667 30.0048 3.72388ZM42.5076 24.8169H37.5065V19.8538H42.1875C43.1427 19.8538 44.0879 19.9035 44.7731 20.236C45.0331 20.365 45.1731 20.499 45.2782 20.6678C45.3882 20.8415 45.5982 21.2981 45.5982 22.2907C45.6269 22.7994 45.5236 23.3069 45.2982 23.7647C45.1567 23.9961 44.9545 24.1848 44.713 24.3107C44.0306 24.6507 43.2762 24.8242 42.5126 24.8169M38.1216 12.4092H37.5065V7.44618H41.2573C42.0425 7.44618 42.7626 7.5107 43.2477 7.78367C43.4168 7.87504 43.5557 8.01291 43.6478 8.18071C43.7678 8.39908 43.9779 8.92021 43.9779 9.96741C44.0111 10.4972 43.9078 11.0267 43.6778 11.506C43.5665 11.705 43.4021 11.8699 43.2027 11.9824C42.6517 12.2674 42.0387 12.4139 41.4173 12.4092H38.1216ZM59.7363 40.8228C60.3324 40.056 60.604 39.0888 60.4932 38.1266C60.3825 37.1643 59.8982 36.2828 59.1431 35.6692C58.3881 35.0556 57.4218 34.7581 56.4494 34.84C55.477 34.9219 54.5751 35.3767 53.9351 36.1079L36.0962 57.7418L27.6643 49.3692C26.9572 48.6908 26.01 48.3151 25.0265 48.3232C24.043 48.3312 23.1021 48.7222 22.4063 49.412C21.7106 50.1018 21.3157 51.0353 21.3066 52.0112C21.2976 52.9872 21.6753 53.9277 22.3582 54.63L33.7257 65.911C34.096 66.2782 34.5397 66.5644 35.0283 66.7512C35.5168 66.938 36.0393 67.0211 36.5622 66.9954C37.0851 66.9697 37.5968 66.8357 38.0643 66.6019C38.5318 66.3681 38.9449 66.0398 39.2769 65.6381L59.7363 40.8228Z" fill="#604BA0"/>
</svg>
