<svg width="83" height="67" viewBox="0 0 83 67" fill="none" xmlns="http://www.w3.org/2000/svg">
<path d="M35.1084 48.1562C36.8395 49.901 39.0208 50.7218 41.6522 50.6185C44.2836 50.5152 46.1879 49.5549 47.3651 47.7375L70.6322 12.5625L35.7316 36.0125C33.9312 37.2687 32.9451 39.1699 32.7733 41.7159C32.6016 44.2619 33.3799 46.4087 35.1084 48.1562ZM12.88 67C11.3565 67 9.95498 66.6678 8.67529 66.0034C7.39561 65.3389 6.37352 64.3451 5.60903 63.0219C3.8086 59.7416 2.42365 56.34 1.45419 52.8169C0.48473 49.2938 0 45.6465 0 41.875C0 36.0823 1.09134 30.6385 3.27401 25.5437C5.45668 20.449 8.41631 16.0172 12.1529 12.2484C15.8895 8.47969 20.2867 5.49679 25.3445 3.29975C30.4023 1.10271 35.8036 0.00279167 41.5483 0C47.2266 0 52.5587 1.08177 57.5445 3.24531C62.5303 5.40885 66.8928 8.35825 70.6322 12.0935C74.3715 15.8287 77.3492 20.1907 79.5651 25.1794C81.781 30.1681 82.9236 35.524 82.9928 41.2469C83.0621 45.0854 82.63 48.8374 81.6965 52.5029C80.7631 56.1683 79.3255 59.6746 77.3838 63.0219C76.6221 64.3479 75.6014 65.3431 74.3217 66.0076C73.042 66.672 71.6377 67.0028 70.1087 67H12.88Z" fill="#604BA0"/>
</svg>
