<svg width="74" height="74" viewBox="0 0 74 74" fill="none" xmlns="http://www.w3.org/2000/svg">
<path d="M72.7581 45.8696L63.6222 61.9388C61.8316 65.1304 58.5061 66.8004 55.1441 66.5777H47.8354V74L38.6996 57.2999L47.8354 40.5998V48.0221H58.1407L50.028 33.7342L65.8514 24.4564L72.4292 36.0351C74.3295 38.8927 74.5853 42.7151 72.7581 45.8696ZM26.6767 0H44.9485C48.5298 0 51.636 2.11535 53.1342 5.15847L56.7886 11.6158L63.1106 7.90471L53.4631 24.2708L34.6432 24.6048L40.9653 20.8937L35.8126 11.8014L27.7365 26.0893L11.8766 16.8114L18.4545 5.2327C19.9527 2.15246 23.0589 0 26.6767 0ZM11.4747 61.9759L2.33878 45.9067C0.548152 42.7523 0.803957 38.9669 2.66768 36.1093L6.32202 29.6891L0 25.9779L18.7834 26.2748L28.4674 42.678L22.1454 38.9669L16.9927 48.0221H33.218V66.5777H20.0624C18.3503 66.7036 16.6379 66.339 15.1197 65.5255C13.6016 64.712 12.3387 63.4822 11.4747 61.9759Z" fill="#604BA0"/>
</svg>
